Coordinates
version=1
nRows=5
nColumns=63
inDegrees=yes

Units are S.I. units (second, meters, Newtons, ...)
If the header above contains a line with 'inDegrees', this indicates whether rotational values are in degrees (yes) or radians (no).

endheader
time	pelvis_tilt	pelvis_list	pelvis_rotation	pelvis_tx	pelvis_ty	pelvis_tz	hip_flexion_r	hip_adduction_r	hip_rotation_r	knee_angle_r	knee_angle_r_beta	ankle_angle_r	subtalar_angle_r	mtp_angle_r	hip_flexion_l	hip_adduction_l	hip_rotation_l	knee_angle_l	knee_angle_l_beta	ankle_angle_l	subtalar_angle_l	mtp_angle_l	L5_S1_Flex_Ext	L5_S1_Lat_Bending	L5_S1_axial_rotation	L4_L5_Flex_Ext	L4_L5_Lat_Bending	L4_L5_axial_rotation	L3_L4_Flex_Ext	L3_L4_Lat_Bending	L3_L4_axial_rotation	L2_L3_Flex_Ext	L2_L3_Lat_Bending	L2_L3_axial_rotation	L1_L2_Flex_Ext	L1_L2_Lat_Bending	L1_L2_axial_rotation	L1_T12_Flex_Ext	L1_T12_Lat_Bending	L1_T12_axial_rotation	Abs_r3	Abs_r2	Abs_r1	Abs_t1	Abs_t2	neck_flexion	neck_bending	neck_rotation	arm_flex_r	arm_add_r	arm_rot_r	elbow_flex_r	pro_sup_r	wrist_flex_r	wrist_dev_r	arm_flex_l	arm_add_l	arm_rot_l	elbow_flex_l	pro_sup_l	wrist_flex_l	wrist_dev_l
      3.76666667	    -14.36572908	     16.71631074	    -64.18028671	     -0.04188408	      0.94241196	     -0.81087292	     38.86146849	      4.81352723	    -29.92587606	     19.22387040	      0.33551983	    -11.91888147	    -16.35336563	      0.00000000	     23.65448463	     -5.95395763	     15.50204901	     37.31227431	      0.65122204	     16.53229670	    -14.07484595	      0.00000000	     -0.03396460	     -1.05046233	     -1.22708763	     -0.06307566	     -1.39711490	     -1.30378061	     -0.05580045	     -2.55409411	     -1.30378061	     -0.03881815	     -2.55409411	     -1.07370168	     -0.03153953	     -2.14210278	     -0.99700870	     -0.01940737	     -1.62716615	     -0.92031572	     -0.24260577	    -11.88303998	     -6.82469327	      0.00000000	      0.00000000	    -20.60662078	     10.77462876	     -8.57146496	    -33.39613665	    -37.74811226	    -78.31628951	    119.69598941	     89.99559364	      0.00000000	      0.00000000	     -1.38591848	    -47.88581294	    -11.58734844	     51.59185547	     89.99559364	      0.00000000	      0.00000000
      3.78333333	    -13.26502142	     15.45470152	    -65.12492302	     -0.03294278	      0.94033237	     -0.79592507	     36.82215742	      4.59451901	    -30.03867857	     21.74581673	      0.37953610	     -9.51719411	    -16.57946953	      0.00000000	     20.16326302	     -5.64744514	     14.69580505	     36.95295946	      0.64495081	     17.87593455	    -14.53389959	      0.00000000	     -0.03328333	     -0.81869077	     -1.47909466	     -0.06181047	     -1.08885872	     -1.57153808	     -0.05468118	     -1.99056473	     -1.57153808	     -0.03803952	     -1.99056473	     -1.29420783	     -0.03090690	     -1.66947421	     -1.20176441	     -0.01901809	     -1.26815200	     -1.10932100	     -0.23773949	     -9.26119370	     -8.22628079	      0.00000000	      0.00000000	    -21.10161866	      8.85071742	     -6.87898725	    -30.80648560	    -40.46455066	    -75.15849604	    117.56861904	     89.99559364	      0.00000000	      0.00000000	     -8.51762264	    -46.70394988	    -18.34066847	     52.84879445	     89.99559364	      0.00000000	      0.00000000
      3.80000000	    -12.21412971	     14.09663149	    -66.55718522	     -0.02489431	      0.93923173	     -0.78098637	     34.56015859	      4.65176834	    -29.29697540	     23.53319051	      0.41073166	     -7.52039835	    -16.31256650	      0.00000000	     16.44120861	     -5.43516425	     13.86830339	     36.47300776	      0.63657407	     19.04116694	    -14.72643330	      0.00000000	     -0.03334383	     -0.57442697	     -1.62552333	     -0.06192283	     -0.76398786	     -1.72711853	     -0.05478058	     -1.39666173	     -1.72711853	     -0.03810867	     -1.39666173	     -1.42233291	     -0.03096308	     -1.17137147	     -1.32073770	     -0.01905267	     -0.88978737	     -1.21914249	     -0.23817167	     -6.49803272	     -9.04067308	      0.00000000	      0.00000000	    -21.82962253	      6.30923892	     -4.56470784	    -27.72367378	    -43.23200722	    -72.31650783	    115.17941838	     89.99559364	      0.00000000	      0.00000000	    -13.80943731	    -45.51439890	    -23.54708606	     52.45016284	     89.99559364	      0.00000000	      0.00000000
      3.81666667	    -10.79688147	     12.85111266	    -68.62981134	     -0.01868883	      0.93925134	     -0.76628062	     32.40999138	      4.46457899	    -27.49665405	     25.24468123	      0.44060281	     -5.33488366	    -15.37055352	      0.00000000	     12.78928101	     -4.82254157	     12.68850231	     36.18755006	      0.63159190	     19.89984141	    -14.48094664	      0.00000000	     -0.03241143	     -0.38926633	     -1.44432142	     -0.06019127	     -0.51772422	     -1.53459151	     -0.05324874	     -0.94646216	     -1.53459151	     -0.03704303	     -0.94646216	     -1.26378124	     -0.03009726	     -0.79379190	     -1.17351116	     -0.01851989	     -0.60297355	     -1.08324107	     -0.23151162	     -4.40345860	     -8.03288245	      0.00000000	      0.00000000	    -22.73039584	      4.47139493	     -3.18182390	    -25.95042059	    -44.88477896	    -71.11214892	    112.88231519	     89.99559364	      0.00000000	      0.00000000	    -16.09528641	    -45.60637063	    -25.38654111	     50.97922508	     89.99559364	      0.00000000	      0.00000000
      3.83333333	     -9.05164131	     11.86787907	    -70.91161136	     -0.01411547	      0.94039408	     -0.75226982	     30.55365492	      3.81982082	    -25.22119675	     26.84495632	      0.46853288	     -3.27750941	    -14.22025400	      0.00000000	      9.84071266	     -3.62689070	     11.48474728	     36.48833647	      0.63684161	     20.24943337	    -13.97992018	      0.00000000	     -0.03167463	     -0.27186514	     -0.92784977	     -0.05882295	     -0.36158063	     -0.98584038	     -0.05203825	     -0.66101289	     -0.98584038	     -0.03620093	     -0.66101289	     -0.81186855	     -0.02941306	     -0.55438739	     -0.75387793	     -0.01809888	     -0.42111910	     -0.69588732	     -0.22624871	     -3.07539280	     -5.16042204	      0.00000000	      0.00000000	    -23.43643833	      4.26570912	     -3.45661290	    -26.73332131	    -44.92681674	    -72.41459330	    110.91326203	     89.99559364	      0.00000000	      0.00000000	    -15.35603246	    -47.00163994	    -24.79637420	     49.26348385	     89.99559364	      0.00000000	      0.00000000
